<?xml version="1.0" standalone="no"?>
<!DOCTYPE svg PUBLIC "-//W3C//DTD SVG 20010904//EN"
 "http://www.w3.org/TR/2001/REC-SVG-20010904/DTD/svg10.dtd">
<svg version="1.0" xmlns="http://www.w3.org/2000/svg"
 width="933.000000pt" height="878.000000pt" viewBox="0 0 933.000000 878.000000"
 preserveAspectRatio="xMidYMid meet">

<g transform="translate(0.000000,878.000000) scale(0.100000,-0.100000)"
fill="#000000" stroke="none">
<path d="M4498 8188 c-171 -158 -464 -451 -718 -719 -189 -200 -300 -335 -461
-561 -50 -71 -92 -128 -93 -128 -2 0 -104 49 -227 109 -482 234 -939 391
-1432 491 l-138 28 -13 -22 c-8 -12 -20 -107 -31 -236 -26 -327 -18 -880 19
-1150 37 -279 60 -396 121 -634 78 -305 161 -539 265 -748 71 -141 220 -384
307 -499 106 -140 138 -188 129 -196 -3 -4 -72 14 -154 40 -204 64 -241 74
-372 96 -223 38 -306 46 -525 46 -305 0 -489 -31 -694 -118 l-76 -32 245 -6
c359 -9 445 -25 940 -174 425 -128 508 -161 935 -373 568 -282 774 -366 1113
-451 628 -157 1411 -159 2027 -5 347 87 597 188 1109 448 350 177 415 205 671
292 345 117 671 206 875 238 151 24 377 39 480 32 87 -6 93 -5 70 9 -66 39
-312 104 -480 127 -53 7 -181 12 -290 12 -290 -1 -392 -19 -924 -160 -49 -13
-91 -22 -94 -20 -5 6 26 51 93 136 219 277 435 701 554 1087 92 302 176 718
200 998 18 209 23 541 12 810 -9 224 -30 437 -44 451 -6 7 -227 -41 -432 -93
-384 -96 -769 -239 -1187 -441 l-187 -90 -159 211 c-296 394 -634 753 -1126
1200 -77 70 -145 127 -152 127 -7 0 -77 -59 -156 -132z m272 -606 c112 -86
287 -264 377 -382 381 -503 589 -1157 644 -2025 12 -199 7 -693 -10 -855 -5
-47 -12 -119 -16 -160 l-7 -75 129 220 c71 121 247 418 390 660 301 508 351
597 403 715 56 127 80 213 80 285 l0 63 48 6 c133 16 175 17 248 7 201 -29
243 -110 151 -295 -66 -131 -135 -233 -593 -876 -486 -681 -588 -827 -684
-979 -68 -107 -170 -298 -170 -318 0 -31 -195 -78 -295 -71 -105 6 -116 27
-135 238 -47 529 -217 1245 -424 1786 -35 93 -79 216 -97 274 -17 58 -35 109
-39 113 -4 4 -10 -63 -14 -150 -3 -87 -18 -374 -32 -638 -30 -577 -42 -1195
-25 -1340 6 -55 19 -124 28 -152 16 -50 16 -54 -2 -73 -63 -69 -245 -103 -338
-62 -56 25 -90 74 -111 157 -18 71 -50 375 -71 675 -8 118 -18 248 -21 287
l-6 73 -116 -6 c-65 -3 -299 -11 -520 -19 -222 -7 -406 -15 -408 -18 -6 -5 88
-346 130 -470 52 -157 133 -355 192 -473 l53 -106 -28 -28 c-53 -54 -215 -51
-329 6 -73 37 -88 61 -245 374 -234 467 -361 828 -502 1430 -56 243 -97 377
-139 457 l-33 62 46 19 c213 91 486 131 577 84 74 -38 92 -95 124 -382 25
-228 81 -635 89 -648 4 -7 160 -4 456 9 248 10 494 18 548 19 96 0 97 0 97 25
0 61 -31 623 -41 730 -9 108 -34 259 -45 277 -3 4 12 16 33 26 146 75 432 100
570 52 26 -9 35 -20 43 -51 12 -43 20 -48 41 -23 11 14 9 20 -18 43 -27 22
-34 40 -52 121 -80 369 -112 735 -92 1053 10 164 33 361 46 395 6 16 10 14
115 -66z"/>
<path d="M1045 2289 l-30 -10 4 -170 3 -169 -64 0 c-36 0 -113 -3 -172 -7
l-107 -6 7 160 c7 158 6 161 -16 183 -19 19 -29 22 -69 17 -25 -4 -63 -11 -83
-17 -35 -10 -36 -12 -27 -43 12 -42 11 -257 -2 -536 -7 -161 -7 -227 1 -235
16 -16 143 -14 163 3 15 12 17 38 17 186 l0 172 92 7 c50 3 127 6 171 6 l80 0
-7 -163 c-8 -187 -3 -212 44 -222 39 -9 111 1 134 18 15 11 16 19 6 62 -9 38
-7 132 5 399 12 250 14 351 6 359 -15 15 -119 18 -156 6z"/>
<path d="M1453 2278 c-32 -11 -33 -12 -25 -52 9 -54 9 -207 -2 -502 -8 -239
-8 -242 13 -263 26 -26 83 -28 139 -6 l39 16 -10 52 c-7 35 -7 131 1 312 15
317 15 410 2 436 -9 16 -21 19 -68 18 -31 -1 -72 -6 -89 -11z"/>
<path d="M1900 2283 c-69 -10 -71 -12 -59 -35 15 -28 16 -163 5 -494 l-9 -262
24 -15 c55 -36 266 -48 378 -22 179 42 307 188 331 377 29 230 -75 386 -295
443 -55 14 -303 20 -375 8z m331 -116 c55 -23 104 -72 129 -129 31 -70 33
-225 5 -307 -21 -65 -83 -136 -140 -162 -40 -19 -136 -25 -184 -12 l-24 6 7
191 c3 105 9 247 13 315 l6 124 76 -6 c42 -2 92 -11 112 -20z"/>
<path d="M2807 2281 c-20 -4 -39 -10 -41 -12 -2 -2 0 -29 6 -59 7 -39 6 -156
-3 -394 l-12 -339 22 -19 c26 -20 82 -24 130 -7 l31 11 0 165 0 165 33 -7 c41
-9 41 -9 127 -149 40 -65 86 -134 102 -152 54 -61 128 -55 189 14 l31 35 -40
36 c-42 38 -79 84 -155 193 l-48 67 38 20 c113 58 163 189 114 296 -24 52 -53
78 -126 112 -57 26 -68 28 -210 30 -82 1 -167 -2 -188 -6z m289 -117 c49 -23
74 -67 74 -129 0 -93 -52 -143 -162 -152 l-58 -6 0 59 c0 33 3 103 7 158 l6
98 49 -5 c26 -3 64 -14 84 -23z"/>
<path d="M3790 2273 c-167 -58 -270 -225 -270 -437 0 -111 19 -182 66 -253 60
-88 143 -132 271 -141 232 -16 410 161 429 426 7 90 -14 194 -51 257 -35 61
-104 120 -169 144 -70 26 -207 28 -276 4z m218 -111 c50 -36 82 -115 89 -218
12 -188 -37 -332 -129 -380 -43 -22 -129 -18 -169 9 -72 47 -108 188 -90 351
15 131 62 218 136 252 43 20 125 13 163 -14z"/>
<path d="M4517 2280 c-48 -9 -49 -10 -37 -51 13 -45 13 -191 -1 -486 -11 -220
-10 -245 5 -268 22 -33 58 -41 125 -27 29 6 55 13 57 15 2 2 -1 30 -6 63 -9
56 2 477 16 613 l6 53 50 -6 c66 -9 104 -29 128 -69 26 -41 27 -127 3 -169
-21 -35 -77 -66 -136 -77 -34 -6 -41 -11 -39 -26 2 -11 13 -31 25 -44 20 -21
28 -23 87 -19 110 8 208 73 246 163 9 22 16 67 16 100 1 111 -62 188 -181 225
-50 16 -90 20 -195 19 -72 -1 -148 -5 -169 -9z"/>
<path d="M5473 2270 c-65 -23 -100 -48 -152 -106 -79 -90 -113 -193 -113 -339
0 -227 123 -368 333 -382 233 -16 409 151 434 412 19 191 -69 358 -218 414
-76 28 -209 29 -284 1z m207 -100 c77 -39 118 -165 107 -324 -15 -197 -84
-296 -207 -296 -105 0 -161 64 -182 208 -20 145 14 305 80 376 54 57 133 71
202 36z"/>
<path d="M6178 2283 c-14 -3 -15 -10 -6 -41 10 -36 10 -88 -8 -588 l-7 -182
26 -17 c22 -14 35 -16 74 -8 35 7 47 13 43 24 -8 27 -11 454 -3 514 l8 60 111
-155 c61 -85 155 -219 208 -297 96 -141 98 -143 135 -143 70 0 71 3 75 215 2
105 8 281 12 392 8 235 9 233 -70 233 -74 0 -76 -3 -66 -85 11 -82 13 -291 4
-387 l-7 -67 -114 166 c-166 240 -240 338 -268 357 -23 15 -105 20 -147 9z"/>
<path d="M7098 2278 c-27 -9 -27 -11 -22 -71 3 -34 7 -67 9 -73 2 -6 -3 -150
-10 -320 -7 -170 -9 -319 -4 -331 4 -12 17 -27 28 -32 26 -14 89 -13 124 2
l28 12 3 235 c2 129 7 307 11 395 9 192 8 195 -83 194 -31 0 -69 -5 -84 -11z"/>
<path d="M7718 2278 c-9 -7 -19 -31 -23 -52 -3 -21 -63 -181 -133 -355 -100
-251 -126 -326 -126 -365 -1 -48 0 -50 31 -59 17 -5 48 -6 67 -3 34 7 36 9 36
49 0 23 13 78 28 122 l27 80 129 7 c72 4 132 6 134 4 2 -2 17 -48 33 -103 33
-111 53 -144 96 -156 32 -9 97 4 126 25 17 13 16 17 -11 78 -16 36 -75 206
-131 379 -56 173 -108 325 -116 338 -14 20 -23 23 -83 23 -40 0 -75 -5 -84
-12z m50 -472 c-49 -4 -92 -6 -95 -2 -5 5 69 229 90 271 8 16 18 -7 52 -120
l41 -140 -88 -9z"/>
<path d="M8477 2270 c-100 -39 -162 -114 -174 -209 -13 -109 42 -179 204 -261
151 -76 194 -138 143 -203 -44 -56 -203 -57 -313 -1 -27 13 -51 24 -53 24 -13
0 -1 -90 15 -116 28 -46 76 -59 206 -58 124 0 191 20 257 74 82 68 106 195 54
283 -33 57 -66 82 -182 140 -122 61 -154 89 -154 134 0 45 14 69 50 88 41 21
143 19 210 -5 30 -11 60 -21 65 -23 6 -1 11 18 13 42 6 82 -48 111 -203 110
-64 0 -104 -5 -138 -19z"/>
<path d="M1004 1223 c-18 -3 -22 -13 -26 -61 -3 -31 -19 -98 -36 -147 -61
-181 -155 -436 -159 -432 -2 3 -41 130 -87 284 -87 291 -104 336 -131 347 -29
11 -105 6 -141 -9 l-35 -14 24 -48 c14 -26 75 -203 136 -393 79 -246 117 -350
132 -363 14 -11 37 -17 68 -16 85 2 91 6 116 89 12 41 74 206 138 365 64 160
119 306 122 327 12 62 -33 88 -121 71z"/>
<path d="M1443 1213 l-172 -3 6 -93 c3 -51 0 -219 -7 -373 -14 -322 -12 -334
58 -355 54 -16 409 -8 440 9 26 15 52 68 52 106 0 24 -2 25 -27 14 -16 -6
-101 -13 -190 -16 l-163 -4 0 49 c0 28 3 84 6 126 l7 77 116 0 c88 0 122 4
138 15 23 16 48 85 35 96 -4 3 -70 3 -147 0 -77 -4 -140 -6 -140 -6 0 0 1 55
3 123 l4 122 142 0 c161 0 178 6 196 68 5 20 10 40 10 45 0 4 -44 6 -97 5 -54
-1 -175 -4 -270 -5z"/>
<path d="M1987 1213 c-17 -4 -17 -31 -1 -110 2 -12 -3 -167 -11 -345 -9 -178
-13 -333 -10 -345 8 -33 40 -46 93 -38 l47 6 -3 302 c-2 193 0 298 6 292 18
-18 257 -358 337 -477 43 -65 85 -120 94 -123 22 -7 82 11 93 27 4 7 8 82 8
165 0 84 5 254 11 378 10 203 9 228 -5 250 -13 20 -25 25 -59 25 -23 0 -52 -3
-64 -6 -18 -5 -20 -10 -12 -37 5 -18 9 -140 9 -271 l0 -239 -91 134 c-156 228
-257 366 -290 393 -25 21 -40 26 -82 25 -29 -1 -60 -3 -70 -6z"/>
<path d="M3030 1213 l-175 -3 0 -203 c0 -111 -2 -284 -5 -384 l-5 -182 28 -28
27 -28 168 -3 c276 -6 319 8 329 101 l6 48 -29 -12 c-16 -7 -102 -14 -193 -17
l-164 -4 6 77 c4 43 7 100 7 127 l0 48 119 0 c110 0 122 2 145 23 25 22 44 81
29 89 -4 3 -70 2 -146 -1 l-137 -6 0 91 c0 50 3 106 6 123 l7 31 138 0 c129 0
140 1 163 23 14 12 28 38 32 60 l6 37 -93 -2 c-52 -1 -173 -4 -269 -5z"/>
<path d="M4533 1201 c-64 -24 -97 -46 -150 -104 -123 -133 -158 -369 -80 -537
12 -25 44 -68 73 -97 41 -41 64 -55 119 -72 218 -68 422 33 507 249 33 85 37
247 9 339 -29 94 -87 166 -167 206 -51 26 -72 30 -159 32 -80 3 -111 -1 -152
-16z m216 -108 c69 -51 94 -125 94 -273 0 -222 -74 -343 -208 -343 -90 0 -146
52 -171 161 -26 107 -11 291 30 369 21 42 75 92 111 103 44 13 113 5 144 -17z"/>
<path d="M5222 1207 c-22 -7 -31 -15 -28 -26 16 -56 17 -137 6 -410 -9 -226
-10 -313 -1 -334 19 -48 60 -57 248 -57 235 0 270 13 281 106 5 46 5 46 -19
33 -15 -8 -81 -14 -183 -17 l-159 -5 6 149 c19 409 20 543 7 559 -15 18 -105
19 -158 2z"/>
<path d="M6098 1208 c-9 -7 -19 -31 -23 -52 -3 -21 -63 -181 -132 -354 -132
-330 -150 -395 -118 -419 20 -14 93 -18 111 -5 6 4 14 30 17 57 5 49 43 173
56 186 3 4 63 9 133 11 l128 5 25 -86 c14 -47 31 -99 37 -114 15 -38 55 -67
92 -67 28 0 116 33 116 43 0 2 -13 33 -29 68 -24 55 -104 294 -206 617 -35
109 -48 122 -128 122 -35 0 -70 -5 -79 -12z m103 -470 c-49 -9 -151 -10 -151
0 0 7 68 200 90 257 11 29 14 24 55 -110 l42 -140 -36 -7z"/>
<path d="M6687 1213 c-15 -4 -17 -11 -12 -31 10 -40 8 -255 -6 -523 -12 -255
-10 -273 36 -285 14 -3 41 -2 61 2 l36 9 -2 299 c-1 295 -1 299 18 275 43 -56
164 -226 280 -394 68 -99 130 -184 138 -188 19 -11 91 10 98 29 3 9 6 93 6
187 0 95 5 261 10 370 12 230 8 250 -49 255 -19 2 -49 1 -67 -2 -31 -6 -32 -7
-23 -44 5 -20 9 -142 9 -271 l0 -235 -106 155 c-157 228 -251 355 -281 378
-25 20 -96 27 -146 14z"/>
<path d="M7779 1213 c-11 -3 -19 -19 -23 -47 -4 -24 -60 -176 -126 -339 -106
-263 -150 -383 -150 -409 0 -22 42 -48 79 -48 63 0 71 7 71 56 0 25 12 80 27
123 l26 79 126 4 c69 2 129 2 133 -2 4 -3 21 -50 37 -103 36 -120 51 -144 94
-152 37 -7 102 7 130 27 16 12 15 16 -8 62 -14 27 -68 182 -120 345 -115 356
-123 377 -142 396 -14 14 -112 20 -154 8z m96 -341 c21 -68 35 -125 32 -128
-3 -3 -46 -8 -96 -11 l-91 -6 46 129 c26 71 49 137 52 148 7 27 14 11 57 -132z"/>
<path d="M8514 1202 c-108 -38 -184 -134 -184 -234 0 -104 49 -161 210 -243
129 -67 165 -101 156 -154 -17 -110 -189 -120 -378 -23 -5 2 -8 -18 -8 -45 0
-90 47 -123 182 -131 157 -9 279 36 342 126 24 34 31 56 34 106 2 35 -1 80 -7
99 -19 57 -82 112 -189 166 -130 65 -162 92 -162 138 0 46 14 69 52 89 42 22
167 14 231 -14 25 -11 48 -18 51 -14 3 3 6 24 6 47 0 50 -25 78 -85 94 -62 17
-192 13 -251 -7z"/>
<path d="M3605 1200 c-32 -12 -48 -37 -55 -86 -6 -39 -5 -44 9 -38 39 16 371
33 371 18 0 -3 -53 -81 -117 -172 -328 -462 -318 -445 -304 -514 l6 -29 270 1
c149 0 287 5 308 11 44 12 63 38 73 97 l7 43 -29 -12 c-18 -7 -110 -14 -233
-17 l-204 -4 24 33 c103 147 295 411 355 487 74 94 82 115 68 170 l-6 22 -262
-1 c-143 0 -270 -4 -281 -9z"/>
</g>
</svg>
